<svg xmlns="http://www.w3.org/2000/svg" id="Layer_2" data-name="Layer 2" viewBox="0 0 729.32 251.23"><defs><style>.cls-1{fill:#ef4137}.cls-2{fill:#039447}</style></defs><g id="Layer_1-2" data-name="Layer 1"><path d="M651.2 112.53 613.4 93.6l22.03 76.07zm-78.63-39.37c-8.42-4.22-18.33 1.93-18.3 11.35l.53 151c.03 9.42 9.99 15.5 18.38 11.22l3.72-1.9-2.39-170.7zm149.77 74.98L693.3 133.6l.72 51.57 28.39-14.46c9.24-4.71 9.19-17.93-.08-22.57Zm-96.26 55.37-27.69-85.28L600 233.07l20.85-10.63 9.76-4.97zm43.79-81.64-.08-5.53-1.33 4.83-22.98 83.22-1.77 6.41 3.16-1.61 24.05-12.25z" class="cls-2"/><path d="M72.02 251.23c-13.69 0-24.93-1.91-33.72-5.7-8.8-3.8-15.81-8.47-21.02-14.01-5.22-5.54-9.07-11.13-11.57-16.78-2.51-5.65-4.4-12.27-5.71-19.87h36.17c1.52 5.43 3.48 9.89 5.87 13.36 2.38 3.48 6.08 6.57 11.08 9.28 4.99 2.72 11.62 4.07 19.87 4.07 9.99 0 17.44-2.28 22.32-6.84 4.89-4.56 7.33-9.77 7.33-15.64s-2.07-10.1-6.19-13.36c-4.13-3.26-9.99-5.75-17.59-7.49l-23.46-5.21c-9.12-2.17-17.66-5.16-25.57-8.96-7.94-3.8-14.34-8.9-19.23-15.31s-7.33-14.72-7.33-24.93c0-14.99 5.64-27.37 16.94-37.15s26.51-14.66 45.62-14.66c12.38 0 22.64 1.74 30.79 5.21q12.225 5.22 19.38 12.87c4.78 5.11 8.37 10.22 10.76 15.32 2.38 5.1 4.34 11.03 5.86 17.76H97.76q-1.95-6.51-5.22-10.92c-2.16-2.93-5.37-5.54-9.61-7.82s-9.94-3.42-17.11-3.42c-9.77 0-16.84 2.17-21.19 6.52q-6.51 6.525-6.51 14.01c0 7.485 2.12 9.28 6.36 12.22s9.83 5.16 16.77 6.68l23.14 5.21c15.42 3.48 28.12 9.18 38.12 17.11 9.98 7.93 14.98 19.39 14.98 34.38q0 14.985-7.65 27.21c-5.1 8.15-12.55 14.66-22.32 19.55S85.9 251.25 72 251.25Z" class="cls-1"/><path d="M197.46 45.62q-10.095 0-16.62-6.84c-4.34-4.56-6.51-9.88-6.51-15.97s2.17-11.67 6.51-16.13C185.19 2.23 190.73 0 197.46 0s12.33 2.23 16.79 6.68c4.45 4.46 6.68 9.83 6.68 16.13s-2.23 11.68-6.68 16.13c-4.45 4.46-10.06 6.68-16.79 6.68" class="cls-2"/><path d="M179.21 75.27h37.15v172.7h-37.15zm87.98 172.7L267.51.32h36.82v247.65zm163.9 3.26c-14.56 0-27.1-2.56-37.64-7.66s-19.22-11.95-26.06-20.53-11.95-18.19-15.31-28.84c-3.38-10.64-5.05-21.51-5.05-32.59s1.62-21.61 4.89-32.26c3.26-10.64 8.25-20.31 14.98-29 6.74-8.69 15.33-15.59 25.75-20.69 10.43-5.1 22.7-7.66 36.82-7.66 15.2 0 28.62 3.42 40.24 10.26s20.74 16.95 27.38 30.3c6.61 13.36 9.93 29.93 9.93 49.69v10.1H384.51c.86 13.25 5.32 24.66 13.36 34.21q12.045 14.34 33.24 14.34c8.03 0 14.66-1.35 19.88-4.07 5.21-2.72 9.22-5.81 12.05-9.29 2.83-3.47 5.42-7.82 7.82-13.03h34.54c-2.17 7.61-4.72 14.23-7.65 19.87-2.94 5.65-7.13 11.3-12.55 16.95-5.44 5.65-12.6 10.38-21.51 14.18-8.9 3.8-19.77 5.7-32.59 5.7Zm-46.27-104.92h86.36c-.87-15.21-5.37-26.4-13.52-33.56S440 102 429.14 102c-12.17 0-22.27 3.97-30.31 11.89-8.03 7.93-12.7 18.74-14.01 32.42" class="cls-1"/></g></svg>