<svg xmlns="http://www.w3.org/2000/svg" id="Layer_2" data-name="Layer 2" viewBox="0 0 1275.27 200.11"><defs><style>.cls-1{fill:#ef4137}.cls-4{fill:#039447}</style></defs><g id="Layer_1-2" data-name="Layer 1"><path d="M492.56 85.12 463.97 70.8l16.66 57.53zm-59.47-29.78c-6.37-3.19-13.87 1.46-13.84 8.58l.4 114.22c.02 7.12 7.55 11.72 13.9 8.49l2.82-1.43-1.81-129.12-1.47-.73Zm113.28 56.71-21.96-10.99.55 39.01 21.48-10.94c6.99-3.56 6.95-13.56-.06-17.07Zm-72.81 41.89-20.94-64.51 1.22 86.86 15.77-8.03 7.38-3.76zm33.12-61.76-.06-4.18-1 3.65-17.38 62.95-1.34 4.85 2.39-1.22 18.19-9.27z" class="cls-4"/><path d="M54.47 190.03c-10.35 0-18.86-1.44-25.51-4.31-6.66-2.87-11.96-6.41-15.9-10.6-3.95-4.19-6.86-8.42-8.75-12.69-1.9-4.27-3.33-9.28-4.32-15.03h27.36q1.725 6.165 4.44 10.11c1.8 2.63 4.6 4.97 8.38 7.02 3.77 2.06 8.79 3.08 15.03 3.08 7.56 0 13.19-1.72 16.89-5.18 3.7-3.45 5.54-7.39 5.54-11.83s-1.57-7.64-4.68-10.11c-3.13-2.47-7.56-4.35-13.31-5.67l-17.75-3.94c-6.9-1.64-13.35-3.9-19.34-6.78-6.01-2.87-10.85-6.74-14.54-11.58-3.7-4.85-5.54-11.13-5.54-18.86 0-11.34 4.27-20.7 12.81-28.1s20.05-11.09 34.51-11.09c9.37 0 17.13 1.32 23.29 3.94 6.16 2.63 11.05 5.88 14.66 9.74 3.62 3.86 6.33 7.73 8.14 11.59 1.8 3.86 3.28 8.34 4.43 13.43H73.94c-.99-3.29-2.3-6.04-3.95-8.26-1.64-2.22-4.06-4.19-7.27-5.92S55.2 76.4 49.78 76.4c-7.39 0-12.73 1.65-16.03 4.93-3.28 3.29-4.93 6.82-4.93 10.6s1.61 7.02 4.81 9.24 7.43 3.9 12.69 5.05l17.51 3.94c11.66 2.63 21.27 6.94 28.84 12.94 7.55 6 11.33 14.66 11.33 26q0 11.34-5.79 20.58t-16.89 14.79c-7.39 3.7-16.35 5.54-26.86 5.54Z" class="cls-1"/><path d="M149.35 34.51c-5.09 0-9.28-1.72-12.57-5.18-3.28-3.45-4.93-7.47-4.93-12.08s1.65-8.83 4.93-12.2C140.07 1.68 144.26 0 149.35 0s9.33 1.69 12.7 5.05c3.37 3.37 5.05 7.44 5.05 12.2s-1.68 8.84-5.05 12.2c-3.37 3.37-7.61 5.05-12.7 5.05Z" class="cls-4"/><path d="M135.56 56.93h28.1v130.63h-28.1zm66.54 130.63L202.34.24h27.85v187.32zm123.98 2.47q-16.515 0-28.47-5.79c-11.955-5.79-14.53-9.04-19.71-15.53q-7.77-9.735-11.58-21.81c-2.55-8.05-3.82-16.27-3.82-24.65s1.23-16.35 3.7-24.4 6.24-15.36 11.33-21.94c5.1-6.57 11.59-11.79 19.48-15.65s17.17-5.79 27.85-5.79c11.5 0 21.65 2.59 30.43 7.76 8.79 5.18 15.69 12.82 20.71 22.92 5 10.11 7.51 22.64 7.51 37.59v7.64h-92.67c.65 10.03 4.03 18.65 10.1 25.88 6.08 7.23 14.46 10.85 25.14 10.85 6.08 0 11.09-1.02 15.04-3.08 3.94-2.05 6.98-4.4 9.12-7.03s4.1-5.92 5.91-9.86h26.13c-1.65 5.75-3.57 10.76-5.79 15.03-2.23 4.27-5.39 8.55-9.49 12.82-4.11 4.27-9.53 7.85-16.27 10.72s-14.95 4.31-24.65 4.31Zm-35.01-79.36h65.32c-.66-11.5-4.06-19.97-10.23-25.39q-9.24-8.13-21.57-8.13c-9.2 0-16.85 3-22.92 9-6.08 6-9.61 14.17-10.6 24.52" class="cls-1"/><text style="font-family:BeVietnamPro-SemiBold,&quot;Be Vietnam Pro&quot;;font-size:82.16px;font-weight:600;fill:#231f20" transform="translate(705.65 113.4)"><tspan x="0" y="0" style="letter-spacing:-.1em">Y</tspan><tspan x="49.05" y="0">our b</tspan><tspan x="257.81" y="0" style="letter-spacing:-.03em">r</tspan><tspan x="289.69" y="0" style="letter-spacing:0">a</tspan><tspan x="343.42" y="0" style="letter-spacing:0">n</tspan><tspan x="391.56" y="0">d </tspan></text><text style="fill:#231f20;font-family:BeVietnamPro-Medium,&quot;Be Vietnam Pro&quot;;font-size:56.94px;font-weight:500" transform="translate(705.65 185.13)"><tspan x="0" y="0">Our </tspan><tspan x="115.81" y="0" style="letter-spacing:-.02em">w</tspan><tspan x="164.38" y="0">or</tspan><tspan x="224.23" y="0" style="letter-spacing:-.02em">k</tspan><tspan x="255.32" y="0">s</tspan></text><path d="M1010.14 185.7h94.4" style="fill:#fff;stroke:#231f20;stroke-miterlimit:10;stroke-width:3px"/></g></svg>